<svg width="140.000000" height="38.000000" viewBox="0 0 140 38" fill="none" xmlns="http://www.w3.org/2000/svg" xmlns:xlink="http://www.w3.org/1999/xlink">
	<desc>
			Created with Pixso.
	</desc>
	<defs/>
	<rect id="Rectangle 220" rx="8.000000" width="38.000000" height="38.000000" fill="#FF6E30" fill-opacity="1.000000"/>
	<path id="Subtract" d="M19.96 12.43C19.63 12.43 19.3 12.47 19 12.55C19.19 10.76 19.91 9.12 20.99 7.79C25.29 8.3 28.63 11.96 28.63 16.4L28.63 22.72C28.46 22.73 28.28 22.74 28.11 22.74C24.67 22.74 21.67 20.84 20.1 18.04L23.93 18.04L23.93 16.4C23.93 14.21 22.15 12.43 19.96 12.43Z" fill="#FFFFFF" fill-opacity="1.000000" fill-rule="evenodd"/>
	<path id="Subtract" d="M9.25 16.95C9.25 11.62 13.57 7.3 18.89 7.3C21.56 7.3 23.97 8.38 25.71 10.13C24.1 8.52 21.93 7.48 19.51 7.32C17.89 9.12 16.9 11.5 16.9 14.12C16.9 14.31 16.9 14.51 16.92 14.7C16.29 15.25 15.9 16.05 15.9 16.95L15.9 17.61L21.89 17.61L17.52 17.61C18.94 21.49 22.67 24.26 27.04 24.26C27.55 24.26 28.05 24.22 28.54 24.15L28.54 28.25L21.89 28.25L21.89 24.26L15.9 24.26L15.9 28.25L9.25 28.25L9.25 20.94L9.25 16.95Z" fill="#FFFFFF" fill-opacity="1.000000" fill-rule="evenodd"/>
	<path id="antools." d="M120.66 27L120.66 10.72L117.58 10.72L117.58 27L120.66 27ZM84.56 23.24L84.56 17.34L87.28 17.34L87.28 14.81L84.56 14.81L84.56 11.79L81.46 11.79L81.46 14.81L80 14.81L80 17.34L81.46 17.34L81.46 23.21Q81.46 25.05 82.38 25.99Q83.35 27 85.35 27L87.28 27L87.28 24.4L85.86 24.4Q85.15 24.4 84.85 24.13Q84.56 23.85 84.56 23.24ZM51.46 17.58Q50.72 19.01 50.72 20.86Q50.72 22.73 51.46 24.17Q52.04 25.3 52.95 26.04Q53.19 26.24 53.46 26.4Q53.98 26.73 54.54 26.92Q55.35 27.19 56.26 27.19Q57.63 27.19 58.67 26.64Q59.72 26.07 60.31 25.21L60.31 27L63.42 27L63.42 14.81L60.31 14.81L60.31 16.54Q59.7 15.71 58.67 15.16Q57.65 14.61 56.28 14.61Q55.25 14.61 54.35 14.95Q53.89 15.12 53.46 15.38Q53.19 15.55 52.95 15.74Q52.04 16.45 51.46 17.58ZM92.23 26.65Q93.45 27.19 94.92 27.19Q96.43 27.19 97.69 26.64Q97.92 26.54 98.14 26.41Q98.82 26.05 99.36 25.54Q99.98 24.96 100.43 24.2Q100.51 24.07 100.58 23.94Q101.28 22.6 101.28 20.9Q101.28 19.15 100.55 17.78Q100.5 17.69 100.45 17.6Q100.01 16.84 99.4 16.26Q98.86 15.76 98.19 15.39Q97.9 15.23 97.6 15.11Q96.41 14.61 95.01 14.61Q93.6 14.61 92.4 15.11Q92.1 15.24 91.81 15.39Q91.17 15.74 90.65 16.23Q90.01 16.82 89.56 17.6Q89.51 17.68 89.47 17.75Q88.74 19.13 88.74 20.9Q88.74 22.77 89.53 24.19Q89.53 24.2 89.54 24.2Q89.99 25 90.63 25.6Q91.13 26.07 91.75 26.41Q91.98 26.54 92.23 26.65ZM106.27 26.65Q107.49 27.19 108.95 27.19Q110.46 27.19 111.72 26.64Q111.95 26.54 112.18 26.41Q112.85 26.05 113.4 25.54Q114.02 24.96 114.46 24.2Q114.54 24.07 114.61 23.94Q115.31 22.6 115.31 20.9Q115.31 19.15 114.59 17.78Q114.54 17.69 114.49 17.6Q114.05 16.84 113.44 16.26Q112.9 15.76 112.23 15.39Q111.94 15.23 111.64 15.11Q110.44 14.61 109.05 14.61Q107.64 14.61 106.44 15.11Q106.14 15.24 105.85 15.39Q105.21 15.74 104.68 16.23Q104.05 16.82 103.59 17.6Q103.55 17.68 103.51 17.75Q102.77 19.13 102.77 20.9Q102.77 22.77 103.57 24.19Q103.57 24.2 103.57 24.2Q104.02 25 104.67 25.6Q105.17 26.07 105.79 26.41Q106.02 26.54 106.27 26.65ZM125.67 26.66Q126.86 27.19 128.36 27.19Q129.81 27.19 130.9 26.72Q131.96 26.26 132.54 25.45Q132.56 25.43 132.57 25.41Q132.82 25.06 132.96 24.67Q133.16 24.13 133.16 23.52Q133.14 22.38 132.58 21.66Q132.54 21.62 132.51 21.58Q132.06 21.05 131.51 20.73Q131.27 20.59 131.02 20.49Q130.16 20.13 128.84 19.8Q127.54 19.47 126.93 19.15Q126.55 18.96 126.4 18.65Q126.31 18.46 126.31 18.22Q126.31 17.93 126.43 17.71Q126.55 17.51 126.76 17.36Q127.22 17.05 128.05 17.05Q128.96 17.05 129.49 17.48Q129.7 17.65 129.84 17.86Q130.06 18.19 130.1 18.64L133.04 18.64Q132.96 17.44 132.38 16.56Q132.07 16.08 131.61 15.7Q131.59 15.68 131.56 15.65Q130.27 14.61 128.14 14.61Q126.67 14.61 125.58 15.09Q124.49 15.57 123.91 16.41L123.9 16.41Q123.61 16.83 123.47 17.29Q123.32 17.75 123.32 18.26Q123.32 19.45 123.9 20.17Q123.92 20.2 123.94 20.22Q124.32 20.65 124.78 20.96Q125.09 21.16 125.44 21.3Q126.31 21.65 127.68 21.98Q129 22.33 129.6 22.63Q129.97 22.81 130.11 23.1Q130.21 23.29 130.21 23.52Q130.21 23.73 130.14 23.9Q130.02 24.2 129.71 24.42Q129.22 24.77 128.34 24.77Q127.54 24.77 126.97 24.41Q126.9 24.36 126.83 24.31Q126.46 24.03 126.28 23.65Q126.17 23.42 126.14 23.14L123.04 23.14Q123.06 23.62 123.2 24.05Q123.39 24.65 123.79 25.19Q123.81 25.21 123.83 25.24Q124.52 26.13 125.67 26.66ZM75.84 15.32Q74.72 14.63 73.18 14.63Q72.15 14.63 71.28 15Q71.18 15.04 71.08 15.08Q70.37 15.42 69.84 15.94Q69.67 16.12 69.51 16.32L69.51 14.81L66.43 14.81L66.43 27L69.51 27L69.51 20.27Q69.51 18.83 70.22 18.05Q70.23 18.04 70.24 18.03Q70.42 17.84 70.62 17.7Q71.28 17.25 72.26 17.25Q73.19 17.25 73.84 17.68Q74.06 17.83 74.24 18.03Q74.97 18.81 74.97 20.27L74.97 27L78.04 27L78.04 19.85Q78.04 17.63 76.96 16.3Q76.84 16.15 76.7 16.01Q76.31 15.6 75.84 15.32ZM95.72 24.41Q95.33 24.51 94.92 24.51Q94.19 24.51 93.59 24.22Q93.11 23.99 92.73 23.57Q91.86 22.64 91.86 20.9Q91.86 19.22 92.7 18.29Q92.72 18.26 92.75 18.23Q93.17 17.79 93.68 17.56Q94.26 17.29 94.96 17.29Q95.65 17.29 96.22 17.55Q96.76 17.78 97.2 18.23Q97.25 18.28 97.3 18.34Q98.11 19.26 98.11 20.9Q98.11 22.06 97.67 22.88Q97.32 23.53 96.77 23.93Q96.64 24.02 96.49 24.11Q96.12 24.31 95.72 24.41ZM109.76 24.41Q109.37 24.51 108.95 24.51Q108.22 24.51 107.63 24.22Q107.15 23.99 106.76 23.57Q105.9 22.64 105.9 20.9Q105.9 19.22 106.73 18.29Q106.76 18.26 106.79 18.23Q107.21 17.79 107.72 17.56Q108.3 17.29 109 17.29Q109.68 17.29 110.26 17.55Q110.79 17.78 111.23 18.23Q111.28 18.28 111.33 18.34Q112.14 19.26 112.14 20.9Q112.14 22.06 111.7 22.88Q111.35 23.53 110.81 23.93Q110.68 24.02 110.53 24.11Q110.16 24.31 109.76 24.41ZM59.87 18.98Q60.31 19.78 60.31 20.9Q60.31 22.02 59.87 22.83Q59.56 23.39 59.11 23.77Q58.91 23.93 58.69 24.06Q58.31 24.28 57.9 24.38Q57.5 24.49 57.08 24.49Q56.73 24.49 56.4 24.41Q55.93 24.3 55.51 24.05Q55.37 23.97 55.25 23.87Q54.69 23.46 54.32 22.78Q53.87 21.96 53.87 20.86Q53.87 19.75 54.32 18.95Q54.7 18.28 55.27 17.88Q55.38 17.8 55.5 17.74Q55.79 17.57 56.1 17.47Q56.57 17.32 57.08 17.32Q57.5 17.32 57.9 17.42Q58.31 17.53 58.69 17.75Q58.9 17.87 59.09 18.02Q59.56 18.41 59.87 18.98ZM136.02 26.9Q136.46 27.15 137.05 27.15Q137.59 27.15 138 26.92Q138.21 26.81 138.39 26.64Q138.63 26.4 138.76 26.12Q138.92 25.77 138.92 25.35Q138.92 24.9 138.75 24.55Q138.62 24.28 138.39 24.06Q138.21 23.88 138 23.77Q137.59 23.54 137.05 23.54Q136.46 23.54 136.02 23.79Q135.83 23.9 135.67 24.06Q135.44 24.28 135.3 24.56Q135.13 24.91 135.13 25.35Q135.13 25.76 135.29 26.11Q135.42 26.4 135.67 26.64Q135.83 26.79 136.02 26.9Z" fill="#FFFFFF" fill-opacity="0.900000" fill-rule="evenodd"/>
</svg>
